<svg width="800" height="1084.8000000000002" xmlns="http://www.w3.org/2000/svg"><g transform="translate(0, 0)" id="single_state_map"><path d="M620.8490045137296,1067.9508409653727L631.0632729854115,1071.644462301987L646.9317164090935,1074.1256730735513L647.8766996444974,1074.1055017794279L649.0113236615034,1073.0653390393454L648.3465389435769,1074.0802876352373L647.6717133051425,1074.4069729590783L644.2074062797656,1074.8899758168245L635.4322101128419,1073.3139828413696L629.3481700924458,1072.7647261693764L620.6385240857926,1069.735340642219L615.1791051013133,1070.6118559261604L612.8801132084482,1070.5815940460998L610.7506802561766,1069.9927946632215L609.2409426052291,1069.1079206458026L616.713092522532,1068.9326959296423L619.4499064396623,1067.4832543687735ZM584.9193702760858,1073.7011949048429L583.1419378954597,1074.6156981722343L576.3698106435149,1076.974459629846L570.8427575341229,1077.4688043962296L569.7880819784914,1077.3436299188425L569.0283821440971,1076.8267020550993L569.4129683445499,1076.5401722418856L570.4375211386687,1076.6804780582306L575.920053185444,1075.9806937243739L581.1036310330528,1074.5777682154203L583.3061921988083,1073.5124134480739L586.9224391910611,1070.3925659786491L589.1907399684242,1069.7835860932655L589.9796153076823,1069.9357778538588ZM547.9284296862497,1072.1244572169735L551.4075139153865,1072.14353399826L553.3268453423843,1068.0824301103303L553.9215330681109,1068.9377399651694L553.7116209941705,1070.3346730602534L552.1124623153337,1073.9770189631208L548.7154105122027,1078.583724004122L543.6470190734035,1073.971537597271L536.3501116365987,1072.358639984499ZM659.4440295169916,1075.9436431064787L660.76791541294,1076.010290326084L667.265717138649,1078.5322101127613L669.5900955097677,1078.818055855657L671.6342753634199,1078.58175113395L673.9686946550428,1077.2151663900459L679.4373967547108,1076.8591474252898L678.8472558609137,1077.7382230054673L674.353470306829,1079.4153823200286L669.5503107304139,1079.8377753115556L661.9970756437506,1077.785792906785L660.2486293166585,1076.7859260476862ZM680.6580316756626,1041.9185333059067L680.2387758817677,1042.299723439949L679.89283775269,1043.8246358707993L680.2679513866315,1045.1329661487298L680.8234226869936,1045.6361657702346L680.8556294131376,1046.335620009444L679.4913903838424,1047.4168093911658L677.8344490492709,1047.9144675178222L676.1513634311232,1045.3248508154902L673.294437370605,1045.1621660999062L670.9065928038399,1046.6767768087002L670.8819641309055,1048.8899932808717L669.5207563228905,1050.6558808211648L666.098318041506,1052.7642198078702L664.5368601773916,1053.131830100262L659.860254089599,1052.4455459792734L659.5904753952891,1052.243409511785L659.570014651621,1051.1449039503032L656.5084811544075,1048.358552356226L653.9092089030564,1047.6545539923736L645.7118392934644,1047.45895821037L642.5165531570783,1044.3469675850947L641.967144299284,1044.222259023808L641.4910531063106,1044.8934372313488L639.220857815646,1045.5011460865271L637.1789513779622,1044.2705617214942L629.7340824522144,1043.5271272611808L626.749276743758,1044.929882683463L624.3642739469469,1046.7757859079838L622.7685253920572,1047.5689398961276L620.2128269466702,1047.8988815757684L617.4059160373436,1047.792413922748L613.9859406232536,1046.7055355963066L609.2881159864664,1042.8016720147507L601.7341230944803,1038.5187030098768L601.5520603660916,1037.9096983650315L602.0160266739331,1037.1150893247013L601.9970815409033,1036.3683320611171L599.4400569362042,1034.681882817219L596.104955718074,1033.0954715525404L592.9790087685687,1036.7636773794975L598.8951949103393,1042.073118139152L600.4466118539458,1043.9355144090596L587.8636333998584,1036.9613473068785L586.1394368430447,1036.6538599662517L580.8156650110359,1036.566005630938L571.4942806589315,1037.2249043772536L562.9498362122795,1038.7402947138453L550.2749738630155,1042.2101355836257L530.6472476927156,1050.3110557597702L524.281304092874,1052.2205839932176L514.5452107788042,1055.952673333686L511.9097533233762,1056.478001903154L510.8298807408173,1056.4343347289723L510.26152674999685,1055.4907510218372L510.75410020870913,1050.9917013120858L511.51190552979824,1049.8722792719154L512.7016598839145,1050.1391898984175L513.0324419065728,1046.2295836844423L510.6300095873776,1042.7507311370737L506.354471965773,1040.604736876312L502.3996754463187,1040.9104108810907L499.84113523097767,1041.5737875524292L499.12103072461105,1042.056869217552L497.1128466237169,1044.5599365173075L496.68317100665445,1045.7072977500857L500.506677754227,1047.5944046373197L501.84931933187545,1047.7212888461854L503.0430521639282,1048.84082292508L504.97564518404397,1052.923116012881L504.93775491798806,1053.888758306859L503.53562562263687,1056.5221078534323L500.7317459345941,1058.6504964992637L498.11731757682355,1059.5939416479387L496.75307854752464,1060.4715279134925L494.1386501897541,1063.6524782485658L493.3429546026091,1064.22280586562L486.5982977935528,1067.1786158030454L485.59875257503154,1069.1368687721651L485.62357069929567,1070.5182193915098L484.4991770541237,1073.998944412563L481.2714947402601,1077.9714679695799L481.1871888982896,1082.2996336876158L478.65517186918805,1084.6242452583074L478.21564478295477,1084.8000000000002L477.0416148892509,1084.288291129682L475.89884446503856,1080.9387639558909L475.0671531251428,1080.4587459496097L473.194426725393,1081.790057308247L470.7065518562449,1082.8039380816053L466.99652645550304,1082.798458957658L466.67635370734206,1083.3075732168545L466.02312552056173,1081.5664974230804L465.5494971948756,1080.7993625663357L465.0000883370849,1080.2294733081471L463.9959962866342,1080.010281125069L463.46534311053983,1080.0979582654418L462.42336079403685,1080.6020949105696L462.02551300046616,1080.9308733352345L461.6845006059739,1081.4569083984243L460.9645855509334,1082.2021027952424L459.5247554408561,1082.9472714701005L458.0279004803706,1083.4075098625126L457.21325976019216,1083.1006853576246L456.0197163794728,1082.1144342013395L455.0724597281078,1080.8215002685247L454.7693375996678,1080.1420158940155L454.4851606042612,1079.0241079536372L453.0072507767982,1076.5031225849498L452.13577465754133,1075.5604175973267L450.9232861437922,1075.3411779741355L450.3549321529754,1075.121936122353L449.99478517412354,1074.8149937856224L449.36959578422466,1074.0039872627867L449.16119932091897,1073.4777704460985L449.14225418789283,1073.061173025294L449.36959578422466,1071.3508466219982L449.7106081787133,1069.9912595972519L449.69166304568716,1069.3114339219983L449.312760385139,1068.697379394689L447.8539851420355,1068.1491016370373L447.2731273634199,1067.743367114378L446.3510677389786,1066.607489130014L446.26846695897984,1065.9027716410965L446.4598128025573,1065.5590681928152L446.5670422554904,1065.4757187320038L446.7360328420946,1064.354637138641L446.59148147709493,1062.2998639748803L446.42268034182416,1061.61979550447L445.24126184623674,1060.44169056807L444.1437702899675,1059.86029286161L444.4724683479908,1056.3239595166406L444.7195128826679,1055.6753016959174L444.81973263638065,1055.5598754193525L445.89278497104897,1055.3459182305305L446.37872763320047,1055.109794800962L447.40593274593994,1054.029431213381L447.33299398378585,1053.7656413262384L446.71329868246175,1052.5454063992565L446.6144050880612,1049.9300077557646L446.7417163820028,1048.5352617636236L445.49664223945,1047.5072536307289L443.81052540001474,1046.5948908896007L443.73133474395945,1045.895006010449L443.5261589532747,1045.6346289656021L442.3907771309496,1044.968084476528L441.5386250473821,1044.7531436185855L440.95454659614916,1043.222368780952L440.5889055287189,1041.514060336991L439.08655647965134,1039.0629053044786L438.58867838369406,1037.5591779379902L437.3778949319203,1035.2057549769524L436.51911205179204,1033.9137335006426L436.43726907711243,1032.4259013677447L436.7779025689415,1032.3501120867104L436.996718855411,1032.679409074246L437.1920431769213,1032.6996192650076L437.4989543319607,1032.1258181811918L437.11986222008636,1028.8496734414157L436.84875736646427,1027.7183293076205L436.55037152128716,1027.5236503572996L436.3050320485818,1026.5234209092887L436.68147184183545,1025.1392390349502L436.57140061894825,1023.8244141598761L435.303592316759,1022.0960976927508L434.21197375172414,1021.302220945845L433.0875801065522,1020.8964796583596L432.3792215826579,1019.3061898055003L431.61895339427065,1018.0965232599656L431.50281972881567,1017.9965023406266L431.06158758061065,1018.1719233362883L430.41877921699415,1018.1088334946535L429.7053055071847,1016.9285575361064L429.415634423196,1015.7321674291943L428.76524800636616,1015.0079693581874L428.47349295774984,1014.863302689153L426.87054525230633,1014.3877425957235L425.39642445145,1013.817628188156L425.31685489273514,1013.5124469350476L424.6312305284773,1012.6516276446673L423.4005546870212,1012.6793327131809L422.4150288669407,1012.0392485131943L422.3312913789632,1011.9209484767553L422.27691884717206,1010.3552803947296L421.95333597506396,1009.7617478744696L420.520515564207,1009.9247015709188L420.16756773590896,1008.4125491042769L420.02585814086706,1007.1098922035408L419.8555413949507,1006.5754346088688L419.15229805697527,1004.6840511715609L418.35470795652145,1003.4748769340831L418.2256916006081,1003.4172431256811L417.51562801474574,1003.5342703907145L416.65400336465973,1003.4486997655731L416.17961723365806,1003.3206731515629L415.6544581461385,1003.1251121171381L415.3670604781182,1002.9869644354094L415.35701955761033,1002.791400345377L415.38676341646715,1002.6418113062291L415.62206196866464,1002.6085935980209L416.0064587177876,1002.4975008872689L416.0625363115505,1001.895610331856L415.51918989632395,1000.7890201974787L413.95489026225914,1000.4922330902264L413.7574819761139,1000.2755252947536L413.7468727016203,999.903046756438L413.9465544037266,999.3974511958759L414.2002297349645,999.21615552812L414.4307920039064,999.2179156876309L415.10902776628427,999.652890658469L415.9174165925615,999.3516873861836L416.3630061213662,998.8575199993211L416.43556598085706,998.5831487505202L416.3175378020969,998.3754427491431L415.52619959554795,997.9069966885454L414.49331094289664,997.9734466850587L413.77225917987744,998.2381444521843L413.31208189864265,998.3712622050607L412.96254419428806,998.2711489311232L412.9328003354385,998.0957845481807L413.18685456933235,997.3819904349239L412.6382035168608,994.592815654557L413.0127487968093,994.3483191266196L413.13475545350593,994.015570475075L412.18920386411264,993.1053267444295L411.3770260112324,993.0672523571029L410.97330522642005,992.8379242629399L410.7249345324308,992.2542489296357L410.7518366213335,991.9362139799568L411.22432823903364,991.0324846298345L411.7242902996222,989.8744841492571L411.84610750498905,989.5291188552592L411.56950856278854,989.343116745421L411.2805952841227,989.3312301648939L410.450609006195,989.6592093073095L410.0732219562924,989.4170775420289L410.2416441889036,988.0452391017889L410.5297996622503,987.2104700654763L410.4244647226187,986.8668227842245L410.0764426289061,986.2090122763111L411.05780051972033,983.73962001357L410.340348331978,981.5366083169783L409.74963908418795,980.3477020351884L408.18192932617603,978.5654294132546L407.6541179200358,978.6134401950658L406.71803889715375,978.3454153170487L404.65282994584413,977.7542951117002L404.58197514832136,977.3721725323048L404.90650527708203,976.9653751349688L405.2230784499661,976.8726497889838L405.59478195996417,977.1479613930496L405.83633240606287,977.2323161557915L406.26960759839494,977.2036840283736L407.1318006024703,976.0162978083808L407.304201313018,975.2621156743126L407.1196757173311,974.9940485877914L406.7921143672902,975.181497661566L406.6494575155957,975.3834826529755L406.46114289330217,975.8766527824446L406.18227053514056,976.0887630837251L405.80507293656774,976.0513190512856L405.540977782166,975.8074907110404L405.96459095665705,974.7825881909848L407.51202942232703,971.2839351909506L407.7619157269619,971.1532918060238L407.6918187347583,969.3050315165628L407.2718051355405,968.3177140017342L407.0355593266904,968.2941376826584L406.5774660100906,968.6092209082117L406.2222447658278,968.6537287916244L405.7825282282647,968.2910529286937L405.65938486358937,967.8389112924351L405.8062096445501,967.5954294782205L407.6143331406747,965.6406431708738L408.42821605553036,965.817156454561L408.78836303437856,965.6130972702604L409.1670762435933,963.6940517528392L408.21906178690915,963.3103540836919L407.600313742234,963.2138225049694L407.4839906254492,962.9925475506952L407.4981994752161,961.5687511811557L407.7696832315014,961.2163137834532L408.07640493521467,961.0593791766369L409.52438145248743,961.1426957274671L410.40343562495764,961.1374057974435L411.1716607692142,960.9859809920154L411.35751252421323,960.8446942828923L411.4378398882509,960.5317000976465L411.30730792168833,960.3752012751374L410.7798754182113,960.2440499652139L410.0326793716122,960.174175743321L409.54749451478347,959.8801283909006L409.6003514359327,958.7817130980648L409.20023022639,956.3316212212585L408.508543419568,954.3052428499586L409.86160482037667,951.65507140933L410.4801634137184,949.6747787722497L410.41271874014274,949.1071195891373L410.49001488289286,948.811595584556L410.8526247290356,948.2148009699413L411.15669411412455,948.0328480508342L411.3728580819661,948.0328480508342L411.8411817704,948.5339315914625L411.91904626714313,948.919219728753L412.0942887476449,949.3953617960151L412.19166673140717,949.7127103904822L412.46428719566757,949.8033490406833L413.2020106757518,949.573333413362L413.51574207868543,949.2365754490702L413.59360657542857,949.0098617706863L413.5547690527237,948.8058614959718L413.3016620754788,948.6245752804698L413.14365966603145,948.5061429376656L412.853799130713,948.2844940380901L412.4252602216329,947.7406173673171L412.30855820218494,947.6045357423527L412.36690921190893,947.4005219453484L412.56166517942984,947.1965061850033L412.9343159460768,947.0385856105149L413.60573146056777,946.6087092600492L413.7131503648343,946.4463729780728L414.40332156101795,944.8630879014099L414.54522060738964,943.815954897932L414.4739869072073,942.954297906952L414.73827151294245,942.5622831160108L414.9586034100503,942.4248445867897L415.1209632000937,942.3873411414734L416.0471907537976,942.6655268821733L417.1556704872273,943.6416850614214L417.8168556298806,943.197621391103L418.0510174740957,942.7237667334348L417.5173330767175,941.1216712375654L416.9770178827748,940.4030935911196L416.4865283887011,940.441041807595L416.2959403504465,940.3274175843544L416.2252750042535,940.0745739215008L416.35485971416347,938.7833915010469L416.8514116508086,937.4310075215835L417.7704400539624,937.1768052937268L418.158625829692,937.1229634579304L418.2291017245552,936.9625404550388L418.0928862180881,936.453459684908L417.554086634791,935.6614583698138L417.4356795533713,935.3055005087708L417.50066135965244,934.9687363519452L417.63119332621136,934.8027798292724L417.961028092217,934.672352978665L418.5081635340466,934.8517724487374L419.26900007642325,935.4136346519899L419.67669933917205,935.3240378297005L419.8405747398574,935.0996027453657L420.55423790099667,933.0734001138062L420.5856868218216,932.6940035002772L420.5008126258581,932.5141243108346L418.65025203175173,930.964892867778L418.42499440005486,930.5733181911437L418.5407491628539,929.7526212530993L418.8198109723453,929.2702979479955L419.13278456995613,929.1800128668301L420.16169474467097,929.0129071887177L419.78582330540667,927.2499390942239L419.4936893541271,925.7879725170769L419.579700258073,925.4620960572693L419.79055958866593,925.2878958078381L420.11584752274575,925.2298287390004L421.09493199759527,925.7753879503007L421.92851785079984,925.9107268456546L422.3040103874009,925.6870749902309L422.6251303922145,925.3276374360094L422.6920067118008,924.8591230453267L422.09864514538276,923.7226785931407L421.75952726419564,923.6398771626618L421.37513051507267,923.3879380148519L421.21807536227425,922.8261978469682L421.2652487435116,922.466270000059L421.5687497746112,922.0621719213477L422.17442567749094,921.7534622801049L422.5506760194148,921.7845984355718L423.18173840055533,922.2688591173173L423.9420065889426,922.2401526832236L424.57761580200895,921.6052888831155L424.9430674181058,920.914535398515L425.00767032172735,920.5514832717936L424.8725915232426,920.1453609990822L424.29533331990024,919.9348986964033L423.9420065889426,918.5112969315614L424.17351611453705,917.8484921020981L424.16480135334496,917.6117237211502L423.9420065889426,917.1975935378332L422.8503880239077,916.3626823940185L422.7141725174406,915.8312376283993L422.756041261433,915.4890826099163L423.72925274504814,913.7349264329259L425.16984066044097,912.1790152384992L425.2566093697096,911.8451962573499L426.6676428775827,910.391442488125L426.9997510595531,910.3149961285626L427.48095743844533,910.4893199371509L427.8723638867923,910.4645744398795L428.1159982975223,910.4035943405697L428.2995766365566,910.2098266956582L428.2969243179359,909.6989962775579L428.05139539390075,909.3821514718529L426.5918623454745,908.6518878210354L426.3904755813928,908.2906133989245L426.44086963524387,908.0605877441731L426.62482687694137,907.8964084369827L427.3341326574846,907.847132298637L427.6499480250495,907.4893796624656L427.75812473463884,906.9627938639378L428.18098010380345,904.4790673495017L428.01710470312173,904.243253920301L427.35932968441193,904.2403808256977L426.9440523684534,903.9767174775561L426.69530277180456,903.0676835137465L427.74486314151727,903.0601688463985L428.09989493444664,902.7933964196227L428.0959164565138,902.4673857622629L427.81761245234156,902.1367284456655L427.27047701051197,901.936916964085L425.5053589663585,902.2441484369947L424.86236115140855,902.5069493583696L424.4808061722397,902.9640250718421L424.10948156490485,903.1030466182328L423.67525911591656,903.0732090027332L423.55173684858164,902.9642460925179L423.45530612147195,902.5951383360243L411.3707741173348,902.5440816044684L409.8195466250545,902.549386205711L407.7497908418227,902.5496072307351L403.7106884803943,902.5460708300934L396.9196160954234,902.6159146329355L396.00873409947235,902.5818768591989L391.1582116904865,902.6850951335236L390.3924494135208,902.6870843458337L381.7457012485211,902.6970304045817L381.24782315256016,902.6307232575964L375.58284947473294,902.7032190609925L372.3900262056377,902.7169225079979L370.99017032625125,902.7416770993614L366.98668481491404,902.7361515234534L352.2663164526857,902.7732833657146L351.7000464265002,902.8004691373135L345.47031833312576,902.7781458640193L345.39491670367715,902.7880918797928L311.04151753390397,902.92446233379L310.8098185569834,902.9253464181329L306.6151766533985,902.9306509234102L304.49995255090107,903.0329834097902L296.6223767868105,903.0466866423849L295.7258930919561,903.0542013145359L293.7362752214285,903.064368219656L292.90761510280936,903.0645892392795L292.7647687997851,903.0661363765703L286.77526499320084,903.0493388799205L286.42781125347756,903.0621580233119L286.1709152496296,903.0672414745632L284.54314941991834,903.0621580233119L284.37775840859103,903.0725459441346L269.1371566934322,903.063705160781L266.0447426293831,903.0714408464146L265.86855289222876,903.0714408464146L265.31440775118244,903.0922166737837L265.0675526678315,903.0820497821014L253.6919475415816,903.1182969387282L253.22362385314045,903.1129924806783L237.4461170679897,903.1784140366844L237.43115041290002,903.1766458891889L232.84207083968795,903.0968580792287L230.84184369466675,903.143051058656L229.58237125101004,903.1171918434138L228.84786844353948,903.1247064904301L228.1114711227674,903.1269166802167L220.1010899761568,903.1461453216034L207.08521523239688,903.0864701703949L174.20783137678154,903.243393354126L171.83135388983283,903.2458245491953L166.65933257337383,903.2573174675217L166.6257996879176,903.252234062109L153.75864423841995,903.1938853209131L144.69169302287628,903.1852656068131L144.5456260472347,903.1852656068131L140.4438152954899,903.1209491672535L106.88611171286539,903.2292482136463L106.48295928204243,903.2241648014715L92.91047652994166,903.2243858194179L92.39403220361419,903.2940063571577L85.07912689043587,903.139956795253L68.71223701680356,903.1888019002054L66.47216448765175,903.1337682670937L68.71223701680356,901.8168965460964L72.24133639713546,900.5255839058746L75.27767286742164,899.1873273853425L77.56056139721477,897.692906776806L78.8332954339894,896.4212393455373L80.21591124232145,894.390878135513L80.81552470263705,892.7855535938561L80.97977900598198,892.0595794413239L81.06654771525064,891.0399005948111L80.80586268479237,889.5389301216446L80.26270572089925,888.2287277996211L79.60000496760404,887.4864500287968L74.47629374036478,882.7840115040663L71.66673051241378,880.5465662526394L70.67400554178312,879.9270396464844L69.95276432743049,879.2696576910257L69.3910411331708,878.621548781869L68.54627765147961,877.1524426442811L68.4549621102924,876.6591770097193L68.60065018327077,874.5262064208637L68.71223701680356,873.8365630226172L68.88293266537585,873.4271042029995L69.36527575225409,872.7318912356786L72.67574829744626,868.8193671921426L73.52164848711618,867.7020333521532L74.0274835389464,866.8385881965787L75.08083293526579,864.7072762899588L75.54612540241942,863.4964990020353L75.6126228193425,862.9564095534997L75.56639669475771,861.1994171595934L75.35572681549456,860.1509978735312L74.41263809339216,858.3180205792996L73.16472218088165,856.8552445892528L68.71204756547377,852.9789701405998L65.06757232500604,851.1305201083005L63.615806781122956,849.2965315337742L63.06867133929336,847.6381147454249L63.04934730360401,847.2746814295961L63.23538850993282,846.4019724798391L63.7389501457983,845.5653521452896L64.25046873753672,844.9647378418613L65.65543980284201,843.9276956482463L66.33386501655332,843.7585813053238L69.42457401863066,843.729545808761L72.20685625501937,844.1531054313718L75.79184377778074,844.8927072930683L78.30321061188079,845.1750656247168L80.2547487650263,845.0988248181866L82.20363459954751,844.7847718217608L85.267252061396,843.827512742575L88.89638174411084,842.0733475467314L89.45791548704074,841.4245306945832L90.12648923157758,840.1017863454244L90.73784867436552,838.4464091579903L90.84432032197947,837.5185691037723L90.90475529633841,833.7238619802529L90.77536003776186,833.238664492148L90.5122121400127,832.8636709597067L88.90945388589898,831.4199606098528L86.41854779547066,829.5416571296792L86.12508768487169,829.2258176304013L85.5842041369433,828.08795734045L83.77380722485395,826.8885898770468L83.13914526843655,826.1137445427512L83.15297521554749,824.6178766925905L82.77880883825856,823.1589528246104L82.75361181133121,822.4775986472141L82.95954540733874,819.6663057889991L83.5862504078832,818.5827363107201L83.66203093999502,818.2982428324176L82.48269640904255,817.5929840651697L81.8673584883145,817.4254316680417L80.94965624446922,817.8368758094821L80.56488059268304,818.1342467776421L79.35277098159713,819.374726176231L78.92063249724379,817.8135741737751L78.40968225949837,816.4327393052836L77.57552805230443,814.6170085919703L77.59219976936947,813.5533754392418L77.96750285464077,812.0796920993798L79.13698591641514,810.0842043989933L80.06776030204855,809.2050546881401L82.03312840230137,808.0676551705465L82.4224508860134,807.5965142328305L83.23424983623772,807.1577796240063L83.88823582834084,807.0782912914156L84.52990748397497,807.3713752597487L84.71538033631077,807.5818602909203L85.38035450556708,809.0465373811248L85.405930435154,809.2634438122004L84.93192320681555,810.4342998965958L84.94063796800765,811.2976364355673L86.28991034220962,816.5683412516391L87.31029520706215,818.6588520821733L88.27914931008127,819.9203805893367L89.38895520281949,821.0041024362818L90.88618906596821,821.8938483339798L91.62732266999956,822.1880552092061L96.4191151665982,822.1869458396459L97.6325509369999,820.7733391954816L97.8915309054828,819.5327211149024L97.72216141621902,818.3730281557082L97.69241755736584,816.3111184784275L97.70833146910809,815.3143779851225L96.78740855264914,814.8991108617493L96.16146135742747,813.4352892776387L94.30294380745181,811.5873312141985L92.40729379673576,809.854874227266L91.19916266358268,807.4259949976495L90.4540505816185,805.767800217568L89.88380207749287,804.5536016640708L89.5496099308948,803.4854569396684L89.19552539461438,800.9607754838944L88.97784581612723,795.8720601742452L89.16881275704509,792.55924991744L89.54449474497596,791.4513812827745L89.5899630642416,789.9552426795726L89.24099371388002,789.5865800666861L88.5172896322365,789.2676894055694L88.08477224521994,788.3152105118152L88.0737840680631,787.7933953375732L88.1465333788874,787.2962363986499L88.35322478021772,786.8886327503033L89.42078302630762,785.3368208737902L89.77069963332178,785.072321170639L90.2909329862523,784.9549622395989L91.14308506981979,784.8762780392344L92.39365330095461,784.9540731542575L94.38289226882262,784.5873222018945L95.46276485137787,784.9651867183138L95.95533831009016,785.3874977430805L96.25846043852653,785.4541776457545L101.88535439897169,783.3870010418987L103.04119696496855,782.7645849577984L104.2347403456879,781.9420779231414L106.35659524474977,780.0746435963129L108.53547499422348,778.3849152778885L109.8616343061367,776.7839930193823L110.10792103549102,776.2058518252697L110.3352626318192,775.205184734009L110.61943962722944,772.2473751369907L108.8954325217419,771.0020777337304L108.11868206762301,770.8018979232875L107.05756516676047,770.6239586902539L105.54195452457498,770.7574132583031L104.48102707504222,771.0910459175402L100.46446942192415,772.7366660139432L98.79729771551865,773.0702668064741L96.31529583761221,773.2037056198551L95.21647812202355,773.0480269207073L94.57234359909489,772.7589062338557L93.53036128259191,772.1586343266326L91.88876550577697,770.9215611980535L89.95124675107218,768.4396300668504L89.27736836929034,767.3422627806212L89.15119378332747,766.9769798460893L89.02085126809834,765.8241384601642L89.25993884690615,763.8907269687315L89.48671208924134,763.2143240401674L90.07893694767336,762.2464064024489L91.03111933362743,761.2793335949655L92.55279241838434,760.0353791962671L92.85837741411524,759.8767084359688L93.46215880369346,759.9563777776839L93.7899096050678,760.1197212228917L94.3054066747427,760.8494100486605L94.78074006239694,761.7250471785701L95.70905158073583,762.9488743514603L96.23951530550039,763.5273856432932L97.28149762200337,764.3283745863464L99.27092604120116,765.4408078166616L104.40524654293768,767.1538381007385L105.75035098787703,767.4430370238188L107.36068729520048,767.3985451446779L108.23557353840079,767.0497254997363L111.16884848502013,765.4408078166616L111.68036707675856,764.1281302562838L112.09716000335902,761.2354960439816L112.17294053547084,760.1450905251177L111.7372024758406,756.0277351523737L111.33935468226628,750.3513399745425L111.35829981529605,748.1915896780783L111.75614760886674,745.6307684069661L111.90770867308674,745.185375772403L114.97682022351,740.4858980058898L116.7029112936325,738.1504609430885L117.9854967995816,736.9839799983602L119.62235629314455,736.778569151913L122.98151783021603,736.5782804676828L126.55210705187346,736.5818451331215L128.27270403341754,736.7863667810434L131.8743632732403,737.6353995666441L134.93930689440094,737.5785905392586L137.23905659258526,735.5839375502856L137.95802439097315,734.0639239112452L137.30782742547672,732.7927036377878L135.25588006728503,731.8605741838728L132.95006792653294,731.6635803989675L130.0571461132604,732.8477431939236L125.38565521138298,734.0149037233186L119.84590886286242,734.7829475507751L117.89171839109622,733.9886110290508L118.23557255553897,729.813663432451L119.03126814268762,725.5790216722626L121.64569650045814,715.8803532002694L122.15721509219657,714.9882716169659L123.0286912114534,714.0069371926675L123.90016733071025,713.5608606135265L125.20738150959733,713.1816879146463L131.30790379572136,711.9551278742183L131.55419052507932,712.0220452022695L132.33113043053163,714.9882716169659L132.17521198571194,717.9326630502137L132.31218529750186,719.0469304979606L132.61530742593823,720.0503216471516L133.16471628373256,721.3432862553154L133.67623487547098,722.1459135535379L134.05513753601554,722.5026267545554L134.71821719197033,722.9039217194158L136.1391021690215,723.3943827233325L137.5033411983204,723.3497958420276L138.7158297120659,722.6140983625901L139.75781202856888,721.4770596445351L140.27766647883982,720.4601371197068L140.7171935650731,718.4256953716313L140.60788014750506,718.0425984626099L137.66759550166535,715.1537556729718L136.63167562773378,714.0292407676889L136.34749863232355,713.6054687067817L136.21488270113332,713.1370789022658L136.17699243507377,712.3564055225361L136.4232791644281,711.4643941479526L136.65062076075628,711.1074895364272L137.04846855433425,710.8398070122557L140.13046279521586,709.8609515765047L142.63974566468823,708.2959798969832L144.14550483769563,706.4571253522208L147.5823414201841,703.0310892082089L148.2833113421948,702.2053991212388L148.7190494018214,701.3573585327649L149.06006179631368,701.0895489662526L149.7231414522721,701.2011367100613L150.4241113742828,701.0002783346354L150.651452970611,700.8663716595829L150.99246536510327,700.2414622968181L151.295587493536,699.9513193422463L152.43229547518058,699.5272568796763L152.92486893388923,699.1255054147523L152.83014326875127,698.6567854359791L152.11022821371444,697.83091943418L152.33756981004262,695.7328471562032L152.14811847977035,695.3086975354263L150.93562996602122,695.5096116064678L150.59461757152894,695.3310214182329L150.5377821724469,695.1747537285692L151.2387520944576,692.7859423282061L151.37136802564783,691.2676746267698L151.31453262656578,690.3075355739729L151.46609369078578,689.5259938568879L152.12917334674057,688.4990027536905L153.5311131907656,686.7794199797363L154.8951627687311,685.4840545841253L155.9939804843125,684.702328960363L164.8983824584866,683.6972093409831L167.41827460244895,682.9600902847842L168.93388524463444,681.9548851967393L170.07116158026838,680.7709137246638L172.76080211615408,677.0463186846973L171.9992077684583,676.7138403399422L171.8324905978152,675.565318494735L171.49147820332655,674.4033242037585L171.15046580883427,673.7776076449445L170.44949588681993,673.1073992974452L169.04755604280217,672.4369455113638L163.43960721538315,671.2300733342408L159.650391158586,670.4031012953619L158.45684777786664,669.7996141142285L157.52853625952775,669.0396419660856L157.01701766779297,668.3019949352602L156.5812796081591,667.452550244252L156.4486636769725,666.8713309145951L156.4486636769725,666.2008962536911L156.52444420908068,665.6643538467679L156.770730938435,665.0830836826717L157.6232619246657,663.9204937695204L158.94942123657893,662.8919937243027L159.650391158586,662.6236808527137L160.74939832550444,662.5342424460605L161.58298417870537,662.8472751569816L162.77652755942472,663.6969112055558L163.62905854565543,664.7477279931154L165.4856815823332,667.7878615740037L167.49405513456077,669.5760958252176L168.4413117859258,670.0007784861245L171.54831360240496,670.179589600415L171.9461613959793,670.0007784861245L172.15455785928134,669.5760958252176L171.66198440056905,663.8757774523729L171.69987466662496,663.4286089005072L171.9840516620352,663.115585093231L174.50924844324618,661.7346456987225L179.82752618667655,658.8445670053707L180.56638637474316,658.2185977694244L181.36208196188818,656.6306654923173L181.28630142978,653.8573028376613L182.0251616178466,653.7452330840424L183.3515103810896,653.1859935816246L183.80619357374235,652.8280722596464L184.90501128932738,651.4858114020453L185.92804847280422,649.5172261811585L186.19328033518832,648.8683725269948L186.36378653243446,648.1299967151417L185.96896996014038,645.712188272355L183.99564490401826,644.8405433541147L182.40406427839116,644.4600961519891L181.09685009950408,643.2741742946091L179.22128192980017,641.7746083843667L177.6298907555065,640.9016759386632L176.22037285827173,641.1472199464806L175.98166418213077,642.5132143340261L176.58790843900715,644.191540912123L177.72461642064445,645.6237946571791L177.95195801697264,647.2349599001564L177.6298907555065,648.3313745868472L177.44043942523058,648.5775003972813L177.06759920725744,653.0329829844623L175.4799970595668,652.4356937991806L174.05418634793023,651.4131030853068L172.54577485629488,650.9623057398312L171.67676160433257,650.8506675387707L169.77732256701347,650.9374724453191L167.97279864616212,651.4896145991743L167.49632855052187,651.7421900457675L166.05687734310777,652.8542454689996L165.5696085216441,652.6987716389785L162.24720054264253,652.5909459276245L161.26906332444196,652.331893446546L159.78490160308138,651.6565071400701L157.76857109498087,651.2419578711506L156.29482919678776,651.1410598240509L155.79657219816727,650.7839975402603L154.6125013839628,648.5555729455609L154.27281514878268,647.490720677556L154.07256509268336,646.1550457055282L154.2407978739684,644.0843416244998L154.73678145662052,641.3325511129224L155.30002026152215,639.0697392202237L156.03925935225197,636.7744374832282L156.4388122077944,636.2937636730339L157.20343777677772,635.6397872858761L161.83343883732596,633.0702470797214L162.4756788469531,633.0178498057057L162.79812501107517,633.1291378720653L163.6415623334542,633.5915254372485L164.92471619339267,634.5847835156674L165.5283081316411,634.5782903266518L165.73196831168752,634.6112040565022L166.58449929791823,634.2529565165005L168.1190550731335,632.0809458726744L169.69169056573082,630.737318138521L171.2830817400245,630.1550519117836L172.9123631803741,630.020680417213L173.67016850146683,630.2446324153625L175.50784640511483,631.9018006315428L176.70157923716397,630.535766329438L177.0804818977158,629.8191215121333L177.32676862707012,628.3635830121402L177.61094562248036,627.5796677864928L178.3308606775172,626.8629188658806L179.75174565456473,626.5941315112632L180.64216690685134,626.7733234755406L182.1009421499548,627.4004829232463L183.06714393434595,627.9828279599305L185.32180421592784,630.2222373264285L185.98488387188263,630.6925290200725L186.23818030046095,631.3643554499504L186.67391836008755,632.537311252082L186.91584770884583,632.680399173908L187.23052636843204,632.79482400285L187.64201465778388,632.9663480801964L188.22287243640312,632.9950099261205L188.80373021502237,632.79482400285L189.28777836387235,632.537311252082L189.79607628298982,632.0796022892328L190.2801244318398,631.307251065582L190.3125206093173,630.2108158215833L190.33677037959205,629.0529555050789L190.87575941421892,626.313692919568L191.66217188618248,625.3077108639609L192.8221823814456,624.5039646675759L192.93831604690422,624.3157920738286L192.57059101484265,623.1459467300592L190.99454539829821,621.4634199862776L190.73594433247854,621.1316030046855L190.36518807913308,620.333741358927L190.15830722647297,618.1692075000183L190.78918015628733,615.6019418140404L191.03016224839303,615.0882704587648L191.65080480636607,614.4723855881548L191.95335858081307,614.3217733463343L192.5139450670904,614.2377258509823L193.9336933361592,614.377804816726L194.13640625955304,614.5093661017963L194.4978793977134,615.1810549891916L195.59025576806744,616.7603440785288L196.04437060673445,617.2529083557511L196.35829146099422,617.4420426949391L197.02459178956633,617.3777282534083L199.64716655453594,615.8410679845811L201.87511419855218,613.9817710699335L203.0258415786302,612.8738665559449L205.10677499035228,610.2030370369248L205.60219021901867,609.2861543039098L205.85188707231646,608.4344698988734L205.95040176405746,606.8666404747173L209.46642900259758,600.7733083786106L210.70354618928468,597.4353606883169L210.1999845534192,596.9611579726316L208.1808122753646,597.2532179108666L207.5910502842271,597.8514565838032L206.51079879900863,601.4891842127254L204.61742220425367,603.8996968599595L203.7446199256883,604.8318464208996L202.07612205997066,604.2445770071918L199.47552364931107,603.5956234147989L197.9439990953797,603.3738442595586L195.7459847615537,603.3955962151776L189.6666810244169,602.0722724240859L188.34942592502557,601.5593799502549L187.12159185352357,600.7412369087369L186.47745733059492,599.743183303508L186.28800600032264,599.1602524194705L186.28800600032264,598.397639581859L187.02686618838925,595.3693349120495L187.85457905035219,593.9297221030565L188.14841806360346,592.9838338617392L188.32006096883197,591.9739551972798L188.26322556974992,590.3844329968169L190.79372698820953,589.4013529602989L191.98007121837873,588.5580337736474L192.60904963488792,587.9667020097686L193.24825842323116,587.1491321582262L193.5347088346025,586.5323982774753L193.58567124244655,585.6842462933573L193.496439665887,583.6502424703758L193.4183857178141,583.2841359890199L193.09802351832332,582.7038739522841L192.90288864814283,582.3882582917859L191.20597308288416,580.6951633676308L190.28220839647474,580.2360592473342L188.3043365084195,579.8380109102154L187.3360507593934,579.9917981392136L186.2311706012406,580.9849885261401L184.01459003704076,582.1970008874277L182.15796700036663,583.5213988845298L181.5327776104641,583.7234180790101L177.11837216376807,582.6235113991552L173.84086415004276,581.1196850952756L171.6432287188727,579.929834374434L169.08544630885444,578.066342617065L166.52785335016597,575.0801319648908L165.90266396026345,574.1594126167802L165.16380377220048,572.5873558302919L164.91751704284252,569.914803249193L165.0311878410066,568.7692190847665L166.8732231252543,565.445534236057L167.9494961325363,563.0493112410513L168.43221812207412,561.3934707001472L168.58510534560264,560.4393176936437L168.598556390054,558.7452815957777L169.38231654339324,557.7617854670825L172.9674935174844,561.2813387126726L173.79160680417044,562.4713891122319L175.67683699171903,566.023595906332L177.49727482431626,568.7692190847665L178.46347660871106,569.8024939480729L179.9224413031443,570.9477949246184L180.71813689028932,571.3745427598287L182.5747599269671,572.1157149511146L183.9009192388803,572.4526024164443L186.3448413994047,572.8119428569389L187.28887737815603,572.7052643304423L187.82597189948137,572.4110532659615L188.90300271208616,571.5522019649779L189.36242218799816,570.7793393509473L189.44710693262823,570.1055030125608L189.38212512634345,569.5201456075401L189.06915152873262,568.7692190847665L188.18725558631195,567.3782578141236L186.1057538206005,565.6908698536654L185.00560994570333,565.0721330976903L177.44782802711052,561.860418450713L175.45536838663247,560.6114550847797L172.86215857785282,558.3034334614504L171.91016564322854,556.1178734242667L174.00246613476702,554.6320788361363L177.79944969610006,552.2554790410104L180.2892190785533,550.9218347753686L181.27038751803775,550.0694882578764L182.79509182407492,548.1580415306453L184.06668915286718,547.0100970225503L184.54183308919528,546.6804303516583L185.20396548850113,545.8915471429546L186.27038702660502,544.1254431798989L186.57388805770825,543.0238268522944L186.5805188542654,541.2520728959998L186.47859403857728,540.7369596592753L185.8496156220681,539.2936726403159L184.43517199025155,537.2192162007141L183.52031151636038,536.4625859326479L182.25970236472494,535.8488013190336L181.42384309555928,536.4160127565592L179.86390084208688,538.1278998805701L179.48765050016664,539.010221948527L179.28929495736884,540.6717260384921L178.94544079292245,541.6515577566524L177.87750364417298,543.2761828301655L177.70775525224963,544.7083893041327L175.5180767769525,545.1168013841516L172.07915622983273,546.1719775234287L170.51087811783145,546.9837868519253L167.11591027933173,548.3759299794874L165.77838388760574,548.5317558772913L164.66497841959062,549.6665727950385L164.4351739559679,549.7439187987329L163.43979666671294,549.6557803058131L162.90857513662922,549.3621324436217L161.5126977351756,548.2023389602591L160.4009973291286,546.9525294250798L159.84666273674884,546.1870446426728L159.44313140326994,545.3929696178211L158.47427730025083,542.7447021633916L158.05028522310022,540.436433360559L158.00008062057896,539.2889484948291L158.01466837300904,538.4012393833473L158.21264501314363,537.1573459265346L158.32972593525483,536.9883828633028L158.77076863212642,536.4184876623467L159.79494252358927,535.5212018679977L160.2323856451876,535.243098148153L160.86250076967553,535.1285704988259L161.06597149839217,534.9379896451956L162.33718992452486,533.081813218394L162.94438143804655,531.6251494474554L164.73753827908513,529.6599601689886L167.35480840680611,527.7785368318528L168.43108141409175,527.1354498606224L171.7686454995128,525.8217507870813L172.7318160626237,525.2310534443468L175.02701892888217,523.1655022508849L176.33480146175862,520.9927860032067L176.7694028134065,519.4947132457664L176.82017576992075,518.8124034799221L176.34313732029113,518.0645383223027L175.62947415915187,517.6335067251594L172.52057782936754,516.4984576243069L169.9824983576982,515.6953265747416L165.6101511063207,514.8236925794527L163.8103634687286,514.1867226623199L162.19263855952522,514.1171232390107L158.67774802896383,514.4146647149701L157.87883176920514,514.2901077678853L157.09279819989752,514.0400905861643L156.18741029252487,513.2382126638413L155.82006416312288,512.2714116189482L155.72799081660924,510.79791902475426L155.88826664202134,509.86479375096496L157.28149172485064,506.69945902507607L157.41334985072172,505.7282867098993L157.09791338581636,505.5586083897688L155.99644335161065,504.4938610509971L156.56195557247338,501.29747655113806L156.51326658059406,498.48875372251314L157.14470786439415,496.2707542461567L157.36844988544544,495.9283051577768L158.3121069615372,495.28577460786437L158.78005174731152,494.2606138784113L159.67085190225407,491.6337803911538L159.94423017184454,491.21232754661196L161.0182297631618,490.25709177691533L162.91350087121464,488.8850444733989L163.51235652620744,488.92969838156205L165.14807931178802,488.75378846937565L167.12974022644266,488.13245325941534L170.7194640324633,484.7500665913576L173.76603087458352,481.3059673921616L174.2237452885238,480.5682073647122L174.9317249097585,478.5070728875571L175.05297376112867,477.9102405670483L175.07665517741407,477.31113386333254L174.85499712099772,475.01924387716736L175.04046997333353,473.6262889987365L174.86446968750897,472.77494080956694L173.77645069774735,470.6143577067396L173.48696906509213,470.20894017480714L171.90391374932733,468.9957986707823L171.6231468778642,468.6431746756343L171.40129937011443,467.9340700484099L171.62712535580067,467.5895548545732L171.88951544822703,467.43422757962344L172.1932059306564,467.05154839372335L171.91831205043127,464.5733254706556L170.69691932415662,461.5311207643663L169.92301063999548,460.4226962952498L169.2830440463331,459.7006515361454L168.7781562511518,459.23967653674845L166.94976146268164,458.66914592877583L165.96916137719018,458.7994704716093L163.43998611804273,459.63334668868265L161.67676258719075,460.56746346158343L161.46779776989933,460.7653026944745L160.8865610886205,462.64083855996796L161.08756895004262,463.04776477873384L161.93517420168064,463.7272362815702L162.33359034924433,464.3427827071537L162.3764063498893,464.69457950831475L162.27751275548871,464.9946631478497L161.88118057255633,465.417346667793L161.25731734196597,465.80276662352117L161.15520307494444,465.9899421119562L161.023344949077,466.83977351310205L161.46969228320086,468.3280201737862L162.26879799429298,471.96576526491754L162.26595622433888,472.67224391693526L162.11231119548756,473.5292389435772L161.74742793338373,474.75835434255805L159.656832503817,477.50745329300935L158.40380140538764,478.31053763445743L156.8341971340742,478.7744570110799L154.89042648547183,478.88456858902646L153.9109631079591,478.74760594002146L152.73143912568048,478.4208774117669L149.86049366671796,477.2163582758667L149.29403418920265,476.8264197003764L147.68597129784393,475.2823867899415L147.05434056271042,474.31871617181696L146.81942091317615,473.7589985433542L146.6043936533133,472.6092712753998L146.59397383014584,471.9045961291831L146.82264158578982,470.6053284526806L147.22333114931462,469.75452866768774L147.84188974265635,468.7278320929254L149.3622366681011,466.93956536797214L149.02596055686445,466.33719427851156L148.86682143943835,465.80660498048746L148.90243828952953,464.9305373016041L149.3184734108072,464.4001363958032L149.7377292047022,464.1158501568134L151.71749560605895,461.54738081150845L152.63159827462732,460.9952092915428L154.30824254754407,459.3128550533129L155.12951406427965,457.9477152837162L155.6558098597743,455.6648951412526L155.67892292207034,455.24290846032545L155.6393275940427,453.61067563291545L156.3817873573862,451.723444483775L157.55695395906878,450.8431423975635L158.76982137547748,450.22582316835724L160.1592574317001,450.01816280178446L161.10367231311102,449.6780832049526L162.68578037222687,448.58933750469805L163.3359773377233,447.52222760234054L163.75561203427787,445.6461721030355L164.33571200757433,443.84859997270996L164.35200482197615,443.5341833364737L164.18111972207043,442.8006758967167L163.52864934060926,441.6792275064108L158.7575070390085,437.7282235188004L156.70518077816087,436.82536908101974L155.7082878782603,436.6946745087398L154.64811823405398,436.3229364612798L154.263153130938,435.9837533470418L154.04016891520587,435.45868647447514L152.8820529332479,433.9381303612372L150.01811717350574,432.536646297639L149.2197692677364,432.00085840652355L149.03827489333344,431.71701388578094L148.97442979503103,431.3883824560935L148.8556438109481,428.76207601029364L148.9141842720055,427.8861863434922L150.14258669749688,425.71213004900073L150.54460242033747,425.25896430446755L151.38879754803565,424.5627928863514L152.3466634738943,424.1374307707738L155.04748163827026,423.9229362052147L156.51667670453753,424.11706746220534L156.77300435439975,424.2449034422343L158.15277839278133,425.6302306650723L158.37292083855573,426.3747786642243L158.65539277199423,426.62521743306934L159.98685672115244,426.8310861427308L162.198701002093,426.9858256142161L165.52773977765537,426.8200009588745L167.37867927442494,426.42093021942856L169.48462026174093,425.2607742730879L170.11719825352338,424.59808848224566L170.54782112723478,423.34867668920106L170.93183897369818,420.93990921260865L171.05933971896957,419.5870697048831L171.15842276470357,415.2740234290377L170.6664176599843,411.2776886053207L170.10829404099786,408.63196292346584L169.766902743846,406.2272953164502L170.85189051232373,406.0391034404656L171.4403263441527,406.0443121446033L172.05471700822454,405.68105836521045L172.1320131509783,405.5306820334272L172.1320131509783,404.9393568040987L172.42642051822259,404.71627471921147L173.10276176729894,404.86665723309306L173.74803299820996,404.7577206163669L173.67566259004525,404.12492517848204L174.1248516941232,403.4816907723498L174.70817234003334,403.4712720149828L175.03346027410953,402.4805590473734L176.88743099216663,400.49875788150166L177.59200048945058,399.34410699267573L178.11469670967563,397.3533823653379L178.5801786281554,396.12649604400485L178.80865693246596,395.122499789064L178.87704886269785,394.03460973622896L178.5896511946703,393.0422912623426L178.0195921418781,392.1854446048146L177.22029697945618,391.59190753237L176.015197067587,391.2551313458398L174.4418037696705,391.19190018418976L173.3937590105961,391.4853907851966L172.26406072817917,392.06986604441954L171.74988981781644,392.5358021535794L171.2857340586488,393.14608027068243L170.8229044587897,394.2575856184076L170.02626161498847,397.95694174157234L169.80896093916817,398.5203831526751L169.1915390538088,399.50336537624116L168.77796679982202,401.5129012822508L168.3683730237717,402.2955026866721L168.17759553418728,402.30637507880783L167.0329305966734,401.47416680598235L166.19574516819557,400.5384003792842L165.4826503610493,398.9474279809747L164.9336204059182,397.1956926489811L164.74701084560002,396.8816688681818L162.87712621580067,395.42454238576374L163.36022710799807,394.0128558570823L163.35814314336676,392.76128772077936L160.6076887304589,389.05280006385783L160.31252355789184,388.39071550798235L160.33904674413134,385.04051330039147L159.92376942817282,381.8482367354709L159.98325714587554,381.3670832826674L160.25985608807605,380.81313008711913L160.4350985685778,380.0126708895368L160.1980949544086,377.17882996576736L160.27880122110219,376.93230104857776L160.58211280087198,376.6202232301366L163.43979666671294,374.65896431699093L164.33002846766612,373.81742538544404L166.9162285772254,369.88553407147447L167.9206995303357,368.5130895846469L169.92964143655263,366.56373209801495L172.87731468427228,364.2524352906885L175.34245539378753,360.7862303470056L176.12469993648483,359.0912629930017L176.22529859286078,355.3144593626521L175.80717950694816,354.1982611826288L174.8839831745281,353.39944585888225L174.33040638746752,353.0976677933668L173.01712976601266,352.9371263357789L172.3997078806533,352.9741395460678L171.6381135329575,353.30566581164476L170.75451252856146,353.89876599966556L169.79437318673445,355.09240544905333L169.28039172770514,355.9206674229263L168.81737267651624,357.07127620215033L168.66429600165793,357.9516690252558L168.67509472748134,358.40388232880287L169.0803311229356,359.77703070426287L169.10382308789121,361.6374044445456L168.3335139789997,363.7354483716781L166.8381746291525,365.8155687653907L165.58893255732983,367.1666444065595L163.72113189216907,368.436852474244L160.44078210848602,370.03618177539647L157.96294815984584,370.3907892244679L155.63515966478008,370.21042346813465L154.56210733010812,369.91071772855867L153.61977641333215,369.4998344058904L150.93240929340755,367.958548641549L148.3499982104513,365.87343500410407L147.71438899738496,365.1508890849891L147.54028322486556,364.781890283507L147.50466637477075,364.1789050545485L147.60280216385217,363.62764649381006L148.25262022669267,362.37664769426556L148.7626232077855,361.7862993890503L149.3737931992473,361.4483334808792L150.7721334679918,361.58293040332137L152.20173320623508,361.1634752428108L153.16016748609036,361.7138948233023L153.7451931939686,361.7529343087235L156.18778919518445,360.5776303396542L159.16672191239923,359.4392573365758L159.6945333185431,359.3180388694418L160.7795210870172,359.4885163133158L162.15588500145168,358.78298889734924L162.40671856273184,358.36597127074674L162.4084236247072,358.0565507460733L162.7803165860314,357.37072314803663L164.19911759844763,355.71814605651525L164.69263831380886,354.45733560064764L164.79115300554986,353.3921796242121L164.47060135472566,351.9336557952911L163.43960721538315,349.0694300089126L161.25201270471734,347.14313319694793L157.33737986728374,344.5081098252258L156.80255876192314,344.0751144627293L156.06805595445257,343.4801278475552L155.4269526528078,343.2856571472248L154.51569175419354,343.6521055913945L153.8952386475503,344.99720592456833L153.58074943929387,346.04214523524115L153.6118194574592,347.6937176438769L153.867389301995,349.3149449193925L154.59412460492604,351.4540428493383L155.05619639946235,353.6596661205658L153.5532789964018,355.7011178198163L152.7018847181571,356.3499967517291L151.71825341138174,356.8467447630319L150.2634566462075,357.35392336408404L147.96181243472165,357.9241999108717L147.30479522133464,357.9355507892251L145.95988022772144,357.7305529186133L142.58632038954966,356.7604731553729L142.4448002458339,356.3883657602737L142.75133249821738,356.0048993511855L142.91956527949878,355.6103003087792L143.07775714027957,353.35789204317825L143.25318907211113,352.64442432638316L144.82999249397471,351.3582096953205L145.42600637901705,351.2943963648122L146.31339641001614,350.90038420863584L147.63444053601052,350.0314857253579L147.9720428065557,349.6449430223129L148.17892365921216,348.9079472093608L149.3285143313151,346.7338190986402L150.07855214786468,345.52013683925725L151.26432802404452,344.4894816794995L151.97249709660537,343.71844270760175L152.45881866141644,343.2154563870199L152.49083593623436,342.3598502844752L152.16668471013327,341.2272395465925L151.64474629523465,340.5028797601917L146.28251584317695,336.214568475074L145.5955653196106,335.5461611857272L144.26410137044877,333.537847991789L143.5993166525186,332.208784536675L143.13307692871967,330.90372810925237L143.08722970679446,329.84297909856923L143.29922574536613,329.1293396683932L143.85412869173888,328.2030929498296L144.68165210237203,327.58875401350906L145.1846453842445,327.40754081848536L148.65444649819983,326.81818847209433L149.57631667131136,326.52191400056745L151.34636045005027,325.57507903126316L152.8381002246242,324.3710046120441L153.37765761324044,324.123813433941L153.80221804438406,324.04171889486315L156.68642509646452,324.40920867456043L157.31654022095245,324.4046605757794L158.31703269612626,324.0978888797563L160.9181994607752,322.2387361557485L161.74704903072052,321.42156290280036L162.04884499984473,320.8529558089331L162.21215204654072,320.2932028872192L162.4286949170455,318.79559763683756L162.34211565910664,317.68437524277306L161.68149887044638,315.72951739349446L160.76834345853058,314.33121833269615L158.62943793974773,312.65772411325634L156.03149184770882,310.3218742876061L154.71366839433176,309.3005209344683L153.36041754218968,308.539705522795L152.00697723871417,307.9718626184085L147.113638829087,306.851604815738L145.64273870084799,306.17400210262895L144.89383759227712,305.42490174618706L144.22393768843176,304.5437445927564L143.90357548893735,303.93799718431455L143.75447729201187,302.52269240203077L143.97386193247075,301.26369769585926L144.46226746191678,300.1990668259614L145.3543937761715,299.0209838997189L146.96340392418278,297.80821756716705L148.23272783701032,297.2229842412298L149.11651829273978,297.0599355738668L151.1245129423005,296.9859256046475L153.84939142562143,296.6999029070066L155.72192837404145,296.24057267451553L156.36265277302664,295.8518301341319L156.66539599880343,295.79352947357893L159.8250652850984,299.77852622905084L161.86583501480345,302.69411887136994L162.42774766039292,303.21043813144024L168.01087836354054,306.3906918486673L169.325670595641,306.8914362913347L170.43168746177616,307.1108493675838L171.2038910839692,307.1256437292868L172.26841810877158,306.9069136428561L174.42759491989636,305.90404702702745L175.92956506630435,305.0593321886154L177.57002413514056,304.68055304412246L178.34885855389075,304.6332051358413L180.16228668727126,303.9402736095053L180.59328846364224,303.55282223030554L181.18153484414142,302.3863241916333L181.39523594468847,301.5940493513408L181.3819743515669,300.1951961632403L180.820440608637,299.96591495294615L180.29869164506454,299.888500630831L180.10355677488405,299.0246270950147L179.74833553062126,298.1848526358417L179.32472235613022,297.4247436998294L178.27951936701356,295.971846962515L176.6153788818956,294.56598693523847L175.79524407314238,294.03531853445566L175.0637724869557,293.7902496399138L174.20404235017486,293.6570092216625L172.8591273565653,294.129382266653L170.11511428888844,295.73249578338164L167.98795475258157,296.2692668968011L166.747995795944,296.34396277012L164.8370002274787,296.19297660981374L163.36041655932786,295.4100161095157L162.0700635488356,294.1651400316305L159.72200376143155,291.3049955540655L159.52118535133923,290.8218478968447L159.3646985525338,290.0172586784947L159.382696428911,289.0953117999643L159.99576093367432,286.6716620880261L159.7585678681753,286.1710833279012L159.75250542560389,285.6540861571393L160.32426954037146,284.66288981503567L160.47526225059846,283.801989285942L160.3714429216052,283.5513229209437L159.9300213220704,283.26419204093963L159.70684765500846,282.83098103432803L159.6500122559264,282.0689074225875L160.23769028243623,280.59207725263786L160.64330558055008,279.84062865687065L161.12034403017606,279.2010654559108L161.78285533214148,278.5421065444152L162.09904960236963,278.40397536041473L162.84984522424202,278.39782097798616L163.75087575102225,278.7034862936662L164.81748674045957,279.40551826564024L166.01898707705186,280.4215964557279L166.81013583227104,281.3216179670826L170.28126310553853,280.1405733902866L170.94169044287264,280.00176975134036L175.67532138107708,279.72142441717733L176.93289931142863,279.4795948421979L182.06778816715814,282.91165335436926L182.73029946912357,283.0600075137636L184.72238020694567,282.6762442111067L187.12159185352357,281.65299047066856L188.30831498635598,280.6419904662944L188.8050563743309,279.9149315049908L189.14152193689733,279.05222611058616L189.32680533790335,278.1509602608021L189.16899237978578,277.3563347596564L188.70521552327773,276.3120573926535L187.12140240219378,274.72718394032745L185.6702052123037,274.0336473301204L183.33408085870178,273.6104912537985L182.37261535756625,273.2671261839614L179.09984362709656,271.69340629164435L178.26606832256584,271.12107157419086L177.72992105788944,270.3539799012369L177.1350438808331,269.11069828425116L176.40129887868534,268.0265248537662L174.8316946073719,266.1583849841909L174.3516249364584,265.40181837281125L173.65368623573158,263.3269827515387L173.30964261995905,261.5224990909346L173.3499957533022,260.39387044160776L173.71279505077837,259.40869095646303L175.5383480692908,256.9464369775342L176.66331006845212,255.6844995718384L180.19373560809254,252.14790064656972L182.14356869926632,249.99107235632346L183.82987499002775,247.45639654984643L185.08972633634403,245.97945260933466L185.23958233858866,245.64815793018352L185.1869148687765,245.11181846732325L184.67994310896393,244.44417047388652L183.33427031003157,243.33647270772508L180.3288144065773,241.82222014830222L178.28956028751782,240.98911400276484L172.27050207340653,239.46942545946604L171.2097640752072,238.9854479991709L170.70525518268914,238.5078538950629L170.33809850462058,237.80800087287298L170.13140710329026,236.74127039311952L170.1372800945319,235.8921841641577L170.25796059191634,235.2223918191694L170.48492328558496,234.60968978280562L171.3817858830953,233.57476884844255L172.12689796505947,233.06391337403238L172.86121132120024,232.72463028636503L173.65217062508964,232.52197149985932L175.3456760664012,232.38259951739929L177.9784812032085,232.38374191476214L179.04243987402515,231.98778296287674L179.64148498034774,231.41976311976305L180.7448495278586,230.04282868050177L183.56293806567191,228.25399335639304L184.56324108951594,230.23203156631735L186.19801661844394,234.22679830992547L186.57597202233592,235.62239677826983L187.121212950864,236.64441658858232L188.1162113374594,237.40050303728003L189.48082926941788,237.93157335963315L190.29433328161394,238.07022029744712L191.52481967173298,237.99781337096465L192.66304326401587,237.68602652005848L193.27383435281808,237.35344836461263L193.73704285533313,236.86530651788507L194.01496795684943,236.35659347095952L194.4882173798651,234.42327101091996L194.42645624620127,233.55649160350004L192.64580319296147,230.82841990097768L191.40641259031327,229.76153450808852L190.94112012316327,228.94984886391467L189.42494112698478,224.62302822512265L190.41122475238808,224.29594060239197L191.51458929989894,224.0979939119261L192.68767193695385,224.0328493515335L195.0122397594023,224.34508409827868L196.55532084447987,224.90096837030887L198.00443406974227,224.84885489636872L199.47571310064086,224.5718282904145L201.58828488452127,223.6847222559927L201.91565678322877,223.66803577082283L203.31286034399454,223.97227614298663L206.1877842808899,223.53545770734308L207.52284780532864,222.83506476283947L208.1791072133965,222.1657361251182L208.47143061600582,221.5446205500275L208.55137907738026,220.9527477088277L208.47503019127907,219.86657176199242L208.1597831777035,218.37655305635417L208.24143670105332,216.99160408318858L208.39110325196816,216.30926825742972L208.67262792875408,215.5864325587363L209.4751437637933,214.36548560556184L210.91004813928157,212.50430252352635L211.40281104932365,211.51600521810906L211.67031632766884,210.56585654881292L211.68300956679377,210.05736834100844L211.40603172193732,209.1622777210796L210.51883114226803,207.730458466046L210.08195637465542,207.35023879232722L209.37795523136447,206.88307539764264L208.34411932206058,206.60968120946836L207.31331463404422,206.61311295960513L205.87272671864775,207.32873396678042L203.4219843102328,207.76591780232593L202.6018495014796,207.6977443111191L202.05660857295516,207.4909346680961L197.31085274960788,203.96384962205684L196.89576488497914,203.53024103778807L195.48245796114134,201.50370716995167L195.01015579477098,200.36403188846452L194.84912216403973,199.1636386494156L195.79959948801843,197.29870461301198L198.8755312863359,194.9510307708897L204.1903989058228,191.11530367646083L205.4091393134695,191.38456660972133L207.1505759413376,192.15821874156063L209.29364938939034,194.3219449406888L210.4752573363039,195.09387710377177L212.1719834502328,196.4636832340675L212.79717284013168,196.82786502811268L214.90178766813915,197.52462114199625L216.0958994028515,197.66813513488614L218.19293617764197,197.44107582324523L219.2944062118513,196.99770736667415L220.1615249505121,196.49458516103277L220.75166584431645,196.02693071921112L222.02383152709808,194.69349264874836L222.96995147048438,193.3144034873976L223.55175650575256,192.03893317233087L223.67471041909812,190.66835556106798L223.38655494575505,188.74077340409258L223.1343952251591,188.154766804676L222.68766898837566,187.6211853531613L221.89235230389022,187.10453622395653L219.65379538538036,186.70123800687634L217.7939516760889,186.92567530515953L216.10726648266427,186.41061073320998L214.4984457859864,186.22120825769343L213.8378289973225,186.35679038792023L212.799825158756,186.90781202385824L211.8364651443153,187.11781904304098L211.04474803510675,187.05942037371278L210.35419793625624,186.50679991304332L209.36412528425353,186.79742573968542L208.38219903944628,187.34339655890653L207.62685658564806,186.70536034810266L203.85128102463204,184.61407527895608L203.04649177363171,183.92257988555866L199.89553724852522,179.82028222923054L199.41433086963298,178.85207882286977L199.07938091770848,177.02115727919227L199.04831089954314,175.40134228849092L199.19002049458868,174.80828505481804L199.73810319307086,174.00162462613935L200.58987637397877,173.0108986356281L201.70062952336957,172.55505133433326L203.7383680317871,172.69210459668648L204.7451124008585,173.02212852367848L204.96260252801585,173.242828874294L205.27614447961605,173.83157997003764L206.0720295180945,176.42998295594043L206.41152630194483,176.9725808471685L207.11742195854094,177.63087275560065L210.0425504979612,179.6768647223289L212.32657573573306,180.4349493471882L214.28853371204605,180.55934661008905L215.03572975864154,181.06219662197145L215.97465055147404,181.7203490810789L216.53997332101062,180.6965721268425L217.0463767268302,179.3492456535223L217.45218147627747,177.92942238791966L217.5469071414118,177.21362873230282L217.4296367679708,176.31930761069816L217.45748611352246,174.94211409125L218.02754516631467,171.73592006162198L218.89239048901436,167.75046687477152L219.23245562685406,166.88986575662784L219.67671899634297,166.33850148051079L220.3945500867485,165.7447069290647L221.0688073711899,165.37787489873335L222.60146863310365,165.01149443936902L224.47722625413735,164.31746179721995L225.49249593307104,164.33190673525132L230.28618294297485,164.89570942906448L231.63147683924763,164.7624984873646L233.50590830096917,163.31248024080105L233.9965872463763,162.75803266230287L235.81513056566837,159.7789222176043L236.23059733295668,158.79709763564279L236.28345425410225,157.2074035184969L235.88863768181182,155.64900433458024L235.50613544599037,154.5917258862073L234.70494577026693,153.17558373411975L231.62977177727225,150.4744619177145L231.26337290452648,149.91321974869606L231.14515527443655,149.54425031927258L231.01007647594815,148.03043785918817L231.27227711704836,146.4694593306167L231.51799549240968,146.04763833253764L232.2149869364839,145.44059459746404L233.33047636913398,144.86635260311232L234.4842349704959,144.7141824858336L236.09286621585125,144.8734676168324L238.4581660743097,145.56636553486987L239.25802959072462,145.69190614296258L241.6869850961557,145.6583981266458L243.9492234309473,145.18790269105557L245.77742876808406,144.55650267760666L247.1556871958237,144.5080738306724L247.40216337650781,145.15508233604123L247.66910030086365,145.95124703432884L247.45918822691965,148.15871611295825L245.5777470659741,151.43812655607053L245.17326847584263,153.48873607880432L245.278792866804,155.1197988828444L245.87063882258008,156.03414297959625L246.6288230463324,156.6793877792179L248.12662526347412,157.30786708043343L249.78508220868753,157.31039013117606L251.29084138169492,156.76494474430456L252.03102772907368,155.1975634045557L252.05319353471714,154.03771540357957L251.47858764999546,152.0938498064288L250.25511095909314,149.15485139982775L250.26913035753387,147.4909254985996L252.43683247852096,143.81284248418524L251.83134602696737,142.92706893685772L255.07929963317292,141.0530149517981L256.30277632407524,140.48047843792574L256.9381960858118,140.28993523824374L259.4211452203708,139.9285866810942L260.28049645448846,139.47953161120677L266.5829738586908,134.92617253662775L267.59483341368104,133.87028015103806L268.38882393885433,132.6836523812035L268.9094361944408,131.65336024773387L269.2678781113209,130.56857697431315L269.3965155645783,129.45433072371543L269.11158076384527,128.0751575662198L267.8557078954618,125.43506469579734L267.29985769244377,124.86619795833212L266.0070418146606,123.83732424274058L265.67360747337807,123.28173706520738L265.13007160682537,121.14126631833005L264.831685761641,117.87069876199712L265.0171586139804,116.42173553897646L265.4750624792505,114.35153237704253L266.04246921341837,113.43612141464291L266.5100350965331,111.42836306812296L266.9967355640074,110.62869569465693L268.72945743068703,108.65789502827283L271.39522709895755,107.24479970697303L273.2041084004086,105.69521909454579L273.60100893733033,105.09080726257798L274.0464090148016,103.95161847537383L274.14984944113166,103.31816982111286L274.10911740512165,102.68147989702447L273.17322783357304,99.82807601096647L272.53799752316627,98.71365150450947L270.94243841960633,96.68248957165088L269.57838884164084,95.37712179964637L268.58054868509134,94.25990657783677L267.69884219400046,92.46808383295229L266.390491307131,90.40035193690437L265.34263599939004,87.75206715083277L265.14731167787613,85.2463896944455L266.13908939185785,81.54781988921422L266.1262067013995,81.33343146407333L265.758102766682,80.53618937002193L265.51086878067144,79.47291782334742L265.3238803176937,76.31338296245849L265.094075854071,75.56729894407636L265.1162416597108,75.03357414027869L266.33119304075444,72.8976040941443L266.948993828777,72.0661421183604L268.0173098801897,71.47149440980138L269.1108229585225,69.87108345887191L269.8578295537918,69.29387955459697L271.32872968203446,68.81689547972019L271.9558135852385,69.0148337976998L272.42205330903744,69.38558816864588L272.76022393357925,69.91762768318767L273.76621049732785,70.9286692352116L274.27526622177174,71.80418607479078L274.50601794204704,72.38430904469533L274.65663174961446,74.51089174792924L274.4012513564012,75.04762578308146L272.36483900729945,76.76530358580658L271.8942419028972,77.62627259091278L271.6441661469398,78.70622936155632L271.42781272776483,80.72870957369469L271.6125277747815,81.96415487438571L272.0611485248701,82.9743281943156L272.8468031915145,84.08598670113861L273.58907350352456,84.56880579569406L274.8263801415378,84.98139117418941L275.7692794123068,85.045856834603L277.2293808147224,84.8117073066469L278.6148383930122,84.25360482274027L280.3327830559283,82.92873684117876L281.2874283091769,81.98280683771645L282.50408475218865,80.29553638553716L284.16159444074947,78.7377818823552L285.70979071174224,77.5739890639361L287.5847905274568,75.3853228073167L288.3009165558906,74.2621000353447L288.9118970960226,72.01315217992124L288.96191224721406,71.2063045843588L288.73798077482934,70.39596669303955L288.10710784502226,69.3475683193592L287.32637891296326,68.55881216538091L286.5668685298988,68.15324561370107L285.64859793206415,67.99447317654449L284.3366474699251,68.00322989112647L282.5205670179239,68.21039414993265L280.0018115819403,68.80376096683449L277.68349565338576,69.12589956750526L276.3332760225312,69.07658828897547L274.4836626850738,68.62402461836155L273.1425367180673,67.865195948586L269.4306168040275,63.491606459011564L269.08278416164467,62.97552261821511L268.96930281481036,62.62746354329829L268.95206274375596,62.03229084533268L269.1286313835699,60.63095684477412L269.47021213205153,59.922528184622024L269.8288435002614,59.43032419744668L270.52015140442745,58.94225738150544L271.1997133261175,58.7686528961076L271.79118037923035,58.6831180990157L272.3409681396806,58.477464130808585L272.8483188021528,58.117103224529274L273.1866788780244,57.756966063724576L273.5672866005407,56.98502300965902L273.7787142851266,56.21281808122694L273.7908391702658,53.49866934650345L273.10995108926,51.41217828036588L272.80038761559626,50.085718013528094L272.74146825187927,49.46385747635941L272.84718209417406,48.841284600347535L273.51878705999115,47.32571082077993L274.2472274248903,46.26243030054957L274.95047076286573,45.61552802103324L275.9318286536836,45.15133208553016L277.53041897852745,44.76349369283798L279.08126756814454,44.878161786509736L279.44975040552526,46.096323398020104L281.1703473870657,49.86843819204296L281.57880445513365,51.100349646103496L281.67902420885,51.93249634248696L281.61631581853,52.22217080187056L280.8264932226193,53.45900347170118L278.73722395236837,54.89683863288337L277.9729772860446,56.03711345271586L277.7183546981578,57.1727085785642L277.7183546981578,58.30846655091955L277.88810309008113,59.44392625835553L278.39715881452867,60.78610220192422L279.0757734795661,61.508560375610614L281.55152346357863,62.75792881558755L283.9768793937328,62.87433258897363L285.71244303036656,62.62953808641487L287.5703922263565,62.11389191985654L289.8337672691305,60.750139943365866L290.39871113600384,60.14822309041665L290.87025549705504,59.14744523770605L291.1017650226495,58.089897197924074L291.1182472883811,57.328573812218565L290.76435220343046,56.04541449527187L289.6570091779831,53.528418698367204L287.4730142425942,49.69751888207338L286.8826838974637,47.86182712676691L286.68129713338203,46.85486644039702L286.8163759318668,45.65544095971745L287.1189297063138,44.71734939567068L287.4478172156669,44.12415448484444L288.4286067524954,42.84218115902786L289.6302965404175,41.95425552271172L290.0590249008237,40.580058086139616L290.02606036935686,39.89049892150251L288.72642424368314,37.22710713514061L286.7167245321434,33.863406919525005L285.2859880859214,31.94491699281025L284.92205208047017,31.13036591396758L284.7019096346885,29.30188550009916L284.79284627321977,27.95240528319391L284.90443310675255,27.472074323736706L285.68061520688207,26.066112699689256L286.4736584754064,25.362630917311435L288.2795085555663,24.28195265548038L289.47968273285005,24.06091299570471L290.5980139354506,24.2512336091595L292.32391555423965,24.973695455491907L292.9968466793689,25.361938046500654L293.5540230417064,25.76195125486356L293.88594177234336,26.189207783498205L295.11074462255783,28.849298444953092L295.3221723071474,29.783093780381023L295.2965963775605,30.26359717363721L294.80269675953605,31.689103693741345L294.7990971842628,32.580741260314426L294.9720662487998,33.98183442425761L295.36498830778874,35.73207454151543L296.28856354286836,37.30027461647114L296.57728737020443,37.515159186973506L297.99646728528387,37.937304506144756L298.7917839697657,37.89529812031651L300.50309783612465,37.138936483655925L304.63237903076515,34.68615117398895L309.87317118010833,33.00899869595105L310.62264064266856,32.5664273679422L312.1075601693519,31.355710070917667L313.6387058206201,33.16275345732356L315.38753105037176,34.579962840795815L316.1205182472004,34.93476805856335L317.6145314377318,35.08042787872273L318.358696263047,34.62520837707234L319.0104088391854,33.627473120772265L319.2519592852841,32.73888596616234L319.27961917950597,32.25290424528157L319.0570138664334,31.50647674854099L317.2045587590219,28.737073658937334L317.8621443264019,27.952174357767944L319.38684863243907,26.807673439957398L323.66712253730293,24.492596204907386L329.2121735230685,20.509605195561562L329.55072305026624,19.950769222705276L329.884536294212,18.927541545808708L330.2295271666371,17.3418800923273L330.27670054787086,13.514074188837185L329.96600036622476,11.961010085359703L329.64090188347836,11.128959101676628L329.2195621249484,10.370836396382401L328.4782390695909,9.494334778622942L327.3995031950144,8.845947125580096L323.8800658325308,7.162115969901606L323.12339721942044,6.564740665748104L322.1751933113992,5.438831189557277L321.0680397372853,4.966484141365072L320.43546174550283,4.556783474318763L319.28947064868044,3.2316694311475658L318.919282749328,2.5698869518373613L317.9962758682341,0.08279312286867935L396.78813687221555,0.3922234317578841L398.68965987416595,0.4141932538832407L405.2971539201026,0.42991900563265517L415.395099274996,0.4067928955901152L425.51217921424904,0.1984253699047258L443.98425226987456,0.17553024108201498L469.2057184178193,0.29994990037812386L472.50482388319506,0.39106712462671567L473.8010498849253,0.480333827576942L483.6417203333076,0.5314422944093167L524.8513631456699,0.3059627256488966L528.4784088637462,0.3626219468897034L536.3332504682039,0.49166558099568647L539.6848339520693,0.40355523793459724L539.7111676869754,0.39823622772109957L561.0162959355112,0.2534660713226913L580.207526240858,0.2798300480862963L587.4563130397728,0.042552935200546926L594.2655727524507,0.2236331059702934L606.4709747053021,0.18501206546443427L666.476841799391,0.004394057520585193L666.4912401004913,-9.094947017729282e-13L683.4079177345775,0.10221938974245859L706.5961922060269,0.13621530879208876L707.408180607581,0.11540148805033823L717.5932735743991,0.09666902981462044L717.8306560912315,1.1239204208231968L719.9869911324022,4.889030123629709L721.3995402509172,6.609821889704108L722.1321485450826,7.753461975537903L722.8907116714981,9.44232589242256L724.8814662500117,14.470809263913907L726.2032681813253,17.027412168067713L727.7723040986493,18.879948217287165L729.025335197075,19.97571967101794L729.5991832764739,20.44676873534536L731.807049079478,21.68613327460116L736.5507209381867,23.56454600690904L736.950652696396,24.0017838727872L735.1182794299893,42.603128335965266L733.4401195464307,57.67073502882431L733.0633008505174,62.74502063057844L730.0593605577051,86.15716457285725L729.2151654300105,93.85534581306365L729.1153245789574,94.18212479736849L728.9747516918906,95.58398930004387L725.8859372031184,122.82976490715555L724.1160828757056,141.2290883096557L724.0637943085494,141.72860446824143L722.6008511361797,155.46755755018694L722.1774274130184,159.79864534741046L721.9838081534799,161.70504279943543L720.1313530460684,178.41630271021586L719.950805928318,182.12168965625915L719.3714637603407,185.47846696678243L719.0967593314454,188.8614532910833L717.5682659988015,202.4595637776847L716.2358547929907,215.6392569599975L715.5705017210712,222.30038093428084L712.5985787030731,248.87364587944649L712.581717534682,249.1498696315275L712.581717534682,249.17589381594007L710.8813918454798,263.85985519580754L710.0171148767731,272.1439655541808L709.4542549745274,275.60923023061696L709.2426378386153,278.8021825732603L707.7052402934496,292.95298366645875L707.2907207828102,297.687528858899L707.257187897354,298.3704349639529L706.9713058399684,301.3121921198899L706.9311421579514,301.4959234251846L704.9112120745813,321.48069709443735L704.8841205343488,321.99015351651633L704.6923957881154,323.5705214350328L704.5188583695817,325.4149948298964L704.4324685629799,326.3325051840002L704.3343327738985,326.8043184699718L703.4687296458796,335.17251592201137L703.0545890379035,339.1597443050032L702.9378870184519,340.0747951197718L696.285493007239,406.2023843404486L695.7739744155006,410.1877422114758L695.4140168879821,414.5344916888607L692.7997779815414,439.6450422798007L691.0003692466089,458.15845523783355L688.374573809022,484.3580191952551L685.7114564593721,513.0924746678893L684.7662837726384,521.1618835453792L682.938646789491,540.26254895491L682.928416417657,540.3244096852968L679.721573750121,572.0764110477039L678.9973013144881,580.0546597356379L678.9973013144881,580.080477834721L677.3469907764775,595.732531028515L677.0971044718463,597.1015805572024L675.6508330165416,611.7311576475286L674.357827687425,624.8482712045752L672.3928384898318,642.1651775917971L672.381471410019,642.3281177195149L669.303076744407,671.7394267740065L669.2879206379876,671.9309618426005L666.7074040683328,695.7294986408942L666.6659142270037,696.3793236097208L665.8421798429772,704.5045288135434L665.9530088711872,708.6774736402394L666.2235453708163,713.9792807260601L666.2440061144844,714.0765242667358L666.7056990063611,727.5048785459958L667.3805246447919,742.74712624523L667.5097304520386,748.1878043505012L668.4007200583146,764.6316298115316L668.446946182903,765.1544732160364L669.6717490331175,792.1659699819829L669.9441800460518,796.3052569966139L670.0445892510979,801.2108587666844L670.4964306737966,809.6868155664451L670.4915049392112,809.7731761309315L671.1502272145699,824.1806095807897L671.1553424004887,824.2059007745847L672.3682098168974,847.0887518228501L672.3303195508415,848.3647408440238L672.4760076238235,851.8311025410867L672.4962789161655,852.0951996376989L673.6513636768359,877.7273513628761L674.8259619245327,902.756485635653L674.8407391282926,902.9642460925179L676.0090854820883,930.5730974592907L676.1856541219022,932.4841075119257L677.3905645824416,962.205724512186L677.4021211135878,962.5089964516146L677.5269695402349,966.3521965021491L677.5669437709257,967.8113682406756L677.9018937228466,976.0953708473135L678.1862601695902,983.0898598452904L678.3014465783926,984.2605587854432L678.29727864913,986.2237626006117L678.9548642165028,1003.3175934641094L678.9703992255891,1003.6917722389771L679.0431485364134,1005.9483646429599L679.2826150178771,1010.8412654828699Z" class="state" fill="coral" stroke="#111" stroke-width="0.5"></path></g></svg>